<?xml version="1.0" standalone="no"?><!DOCTYPE svg PUBLIC "-//W3C//DTD SVG 1.1//EN" "http://www.w3.org/Graphics/SVG/1.1/DTD/svg11.dtd"><svg t="1606720490037" class="icon" viewBox="0 0 1114 1024" version="1.1" xmlns="http://www.w3.org/2000/svg" p-id="11401" xmlns:xlink="http://www.w3.org/1999/xlink" width="217.578125" height="200"><defs><style type="text/css"></style></defs><path d="M334.366118 602.352941h667.286588L1054.117647 210.823529H248.289882l86.076236 391.529412zM222.117647 150.588235H1054.117647a60.235294 60.235294 0 0 1 59.693177 68.246589l-52.464942 391.529411A60.235294 60.235294 0 0 1 1001.652706 662.588235H336.715294l26.955294 120.470589H933.647059a30.117647 30.117647 0 0 1 0 60.235294H339.516235a30.117647 30.117647 0 0 1-29.394823-23.552L140.167529 60.235294H30.117647a30.117647 30.117647 0 0 1 0-60.235294h134.174118a30.117647 30.117647 0 0 1 29.394823 23.552L222.117647 150.588235zM331.294118 963.764706a60.235294 60.235294 0 1 0 0-120.470588 60.235294 60.235294 0 0 0 0 120.470588z m0 60.235294a120.470588 120.470588 0 1 1 0-240.941176 120.470588 120.470588 0 0 1 0 240.941176z m602.352941-60.235294a60.235294 60.235294 0 1 0 0-120.470588 60.235294 60.235294 0 0 0 0 120.470588z m0 60.235294a120.470588 120.470588 0 1 1 0-240.941176 120.470588 120.470588 0 0 1 0 240.941176z" fill="#7F7F7F" p-id="11402"></path></svg>