<?xml version="1.0" standalone="no"?><!DOCTYPE svg PUBLIC "-//W3C//DTD SVG 1.1//EN" "http://www.w3.org/Graphics/SVG/1.1/DTD/svg11.dtd"><svg t="1606722079389" class="icon" viewBox="0 0 1024 1024" version="1.1" xmlns="http://www.w3.org/2000/svg" p-id="10027" xmlns:xlink="http://www.w3.org/1999/xlink" width="200" height="200"><defs><style type="text/css"></style></defs><path d="M512.1 67.13c-245.38 0-445.01 199.62-445.01 445s199.63 445 445.01 445 445-199.62 445-445-199.62-445-445-445z m0 827.63c-210.99 0-382.64-171.65-382.64-382.63S301.11 129.5 512.1 129.5c210.98 0 382.63 171.65 382.63 382.63S723.09 894.76 512.1 894.76z" fill="#666666" p-id="10028"></path><path d="M714.74 480.94H309.46c-17.22 0-31.18 13.96-31.18 31.18s13.96 31.18 31.18 31.18h405.28c17.22 0 31.18-13.96 31.18-31.18 0.01-17.22-13.95-31.18-31.18-31.18z" fill="#666666" p-id="10029"></path></svg>